<svg width="179" height="179" viewBox="0 0 179 179" fill="none" xmlns="http://www.w3.org/2000/svg">
<circle cx="89.5" cy="89.5" r="89.5" fill="#F1FCFF"/>
<path opacity="0.2" d="M90 90C110.883 90 127.812 80.7659 127.812 69.375C127.812 57.9841 110.883 48.75 90 48.75C69.1167 48.75 52.1875 57.9841 52.1875 69.375C52.1875 80.7659 69.1167 90 90 90Z" fill="#00D1FF"/>
<path d="M90 45.3125C66.8691 45.3125 48.75 55.882 48.75 69.375V110.625C48.75 124.118 66.8691 134.688 90 134.688C113.131 134.688 131.25 124.118 131.25 110.625V69.375C131.25 55.882 113.131 45.3125 90 45.3125ZM124.375 90C124.375 94.1323 120.991 98.3484 115.092 101.566C108.446 105.191 99.5348 107.188 90 107.188C80.4652 107.188 71.5544 105.191 64.9084 101.566C59.0088 98.348 55.625 94.1327 55.625 90V82.8483C62.9555 89.2786 75.4912 93.4375 90 93.4375C104.509 93.4375 117.045 89.2781 124.375 82.8483V90ZM64.9084 57.8087C71.5544 54.1838 80.4652 52.1875 90 52.1875C99.5348 52.1875 108.446 54.1838 115.092 57.8087C120.991 61.027 124.375 65.2423 124.375 69.375C124.375 73.5077 120.991 77.7234 115.092 80.9413C108.446 84.5662 99.5348 86.5625 90 86.5625C80.4652 86.5625 71.5544 84.5662 64.9084 80.9413C59.0088 77.723 55.625 73.5077 55.625 69.375C55.625 65.2423 59.0088 61.0266 64.9084 57.8087ZM115.092 122.191C108.446 125.816 99.5348 127.812 90 127.812C80.4652 127.812 71.5544 125.816 64.9084 122.191C59.0088 118.973 55.625 114.758 55.625 110.625V103.473C62.9555 109.904 75.4912 114.062 90 114.062C104.509 114.062 117.045 109.903 124.375 103.473V110.625C124.375 114.757 120.991 118.973 115.092 122.191Z" fill="#00B2D9"/>
</svg>
