<svg width="179" height="179" viewBox="0 0 179 179" fill="none" xmlns="http://www.w3.org/2000/svg">
<circle cx="89.5" cy="89.5" r="89.5" fill="#F1FCFF"/>
<path d="M57 123V112H46V123H40.5V95.5H46V106.5H57V95.5H62.5V123H57Z" fill="#00B2D9"/>
<path d="M73.5 123V101H65.8V95.5H86.15V101H79V123H73.5Z" fill="#00B2D9"/>
<path d="M90 123V95.5H95.5L103.2 114.2H103.75L112 95.5H117.5V123H112V105.95H111.45L105.4 119.7H102.1L96.05 105.95H95.5V123H90Z" fill="#00B2D9"/>
<path d="M139.5 123H123V95.5H128.5V117.5H139.5V123Z" fill="#00B2D9"/>
<path d="M86.7 58.1L74.05 70.75L86.7 83.4L83.4 90L64.15 70.75L83.4 51.5L86.7 58.1ZM93.3 83.4L105.95 70.75L93.3 58.1L96.6 51.5L115.85 70.75L96.6 90L93.3 83.4V83.4Z" fill="#00D1FF"/>
</svg>
