<svg width="179" height="179" viewBox="0 0 179 179" fill="none" xmlns="http://www.w3.org/2000/svg">
<circle cx="89.5" cy="89.5" r="89.5" fill="#F1FCFF"/>
<path d="M59.4444 58.4444H65.5556V64.5556H59.4444V58.4444Z" fill="#00B2D9"/>
<path d="M71.6667 58.4444H77.7778V64.5556H71.6667V58.4444Z" fill="#00B2D9"/>
<path d="M83.8889 58.4444H90V64.5556H83.8889V58.4444Z" fill="#00B2D9"/>
<path d="M59.4444 73.7222H65.5556V79.8333H59.4444V73.7222Z" fill="#00B2D9"/>
<path d="M71.6667 73.7222H77.7778V79.8333H71.6667V73.7222Z" fill="#00B2D9"/>
<path d="M83.8889 73.7222H90V79.8333H83.8889V73.7222Z" fill="#00B2D9"/>
<path d="M59.4444 89H65.5556V95.1111H59.4444V89Z" fill="#00B2D9"/>
<path d="M71.6667 89H77.7778V95.1111H71.6667V89Z" fill="#00B2D9"/>
<path d="M83.8889 89H90V95.1111H83.8889V89Z" fill="#00B2D9"/>
<path d="M59.4444 104.278H65.5556V110.389H59.4444V104.278Z" fill="#00B2D9"/>
<path d="M71.6667 104.278H77.7778V110.389H71.6667V104.278Z" fill="#00B2D9"/>
<path d="M83.8889 104.278H90V110.389H83.8889V104.278Z" fill="#00B2D9"/>
<path d="M105.278 89H111.389V95.1111H105.278V89Z" fill="#00B2D9"/>
<path d="M117.5 89H123.611V95.1111H117.5V89Z" fill="#00B2D9"/>
<path d="M105.278 104.278H111.389V110.389H105.278V104.278Z" fill="#00B2D9"/>
<path d="M117.5 104.278H123.611V110.389H117.5V104.278Z" fill="#00B2D9"/>
<path d="M96.1111 128.722H86.9445V119.555H62.5V128.722H53.3333V49.6444C53.3333 49.5962 53.3428 49.5485 53.3613 49.5041C53.3797 49.4596 53.4067 49.4191 53.4407 49.3851C53.4748 49.351 53.5152 49.324 53.5597 49.3056C53.6042 49.2872 53.6519 49.2777 53.7 49.2777H95.7444C95.7926 49.2777 95.8403 49.2872 95.8848 49.3056C95.9293 49.324 95.9697 49.351 96.0037 49.3851C96.0378 49.4191 96.0648 49.4596 96.0832 49.5041C96.1016 49.5485 96.1111 49.5962 96.1111 49.6444V59.1777L102.222 48.7583C102.007 47.198 101.23 45.7697 100.038 44.7405C98.8458 43.7113 97.3194 43.1518 95.7444 43.1666H53.7C51.982 43.1666 50.3343 43.8491 49.1195 45.0639C47.9047 46.2787 47.2222 47.9264 47.2222 49.6444V134.833H102.222V80.9944C100.007 80.8603 97.8803 80.0736 96.1111 78.7333V128.722Z" fill="#00B2D9"/>
<path d="M129.722 81.0556V128.722H105.278V134.833H135.833V81.0556H129.722Z" fill="#00B2D9"/>
<path d="M117.042 37.4835L99.5639 67.6113C99.1573 68.2081 98.9238 68.9059 98.8895 69.6272C98.8551 70.3486 99.0211 71.0654 99.3692 71.6982C99.7172 72.331 100.234 72.8551 100.861 73.2124C101.489 73.5696 102.203 73.7462 102.925 73.7224H137.911C138.633 73.7462 139.347 73.5696 139.975 73.2124C140.602 72.8551 141.119 72.331 141.467 71.6982C141.815 71.0654 141.981 70.3486 141.947 69.6272C141.912 68.9059 141.679 68.2081 141.272 67.6113L123.794 37.4835C123.45 36.8939 122.957 36.4049 122.364 36.0651C121.772 35.7252 121.101 35.5464 120.418 35.5464C119.735 35.5464 119.064 35.7252 118.472 36.0651C117.879 36.4049 117.386 36.8939 117.042 37.4835V37.4835Z" fill="#6FE5FF"/>
</svg>
