<svg width="179" height="179" viewBox="0 0 179 179" fill="none" xmlns="http://www.w3.org/2000/svg">
<circle cx="89.5" cy="89.5" r="89.5" fill="#F1FCFF"/>
<g clip-path="url(#clip0)">
<path d="M142.789 59.8864C142.824 60.0308 142.844 60.1923 142.844 60.3333V83.9489C142.845 84.2503 142.766 84.5465 142.615 84.8074C142.464 85.0682 142.247 85.2844 141.985 85.4339L122.164 96.8567V119.469C122.165 119.77 122.086 120.066 121.935 120.327C121.784 120.588 121.567 120.804 121.305 120.954L79.9312 144.765C79.8347 144.819 79.732 144.86 79.6253 144.889L79.5187 144.944C79.231 145.016 78.9299 145.016 78.6422 144.944C78.5988 144.931 78.5572 144.912 78.5184 144.889C78.4191 144.858 78.3234 144.817 78.2331 144.765L36.8766 120.954C36.6131 120.805 36.3933 120.589 36.2395 120.328C36.0856 120.068 36.003 119.771 36 119.469V48.6251C36 48.4808 36.0344 48.3192 36.0722 48.1783C36.0894 48.1233 36.1066 48.0889 36.1272 48.0339L36.2337 47.7658C36.2509 47.7108 36.3059 47.6764 36.3403 47.6214L36.5019 47.4048C36.5597 47.3691 36.6139 47.3276 36.6634 47.2811C36.7356 47.2261 36.7872 47.1745 36.8594 47.1367L57.5394 35.2292C57.8009 35.079 58.0972 35 58.3987 35C58.7003 35 58.9966 35.079 59.2581 35.2292L79.9553 47.1367C80.0275 47.1711 80.0791 47.2261 80.1341 47.2811L80.3128 47.4048C80.3657 47.4738 80.4139 47.5461 80.4572 47.6214C80.4916 47.6558 80.5466 47.7108 80.5809 47.7658L80.6875 48.0339C80.7047 48.0889 80.7425 48.1233 80.7425 48.1783C80.7945 48.3213 80.819 48.473 80.8147 48.6251V92.8658L98.0366 82.9486V60.3367C98.043 60.1336 98.0861 59.9333 98.1638 59.7455L98.2703 59.4773C98.3047 59.4052 98.3597 59.3708 98.3941 59.3158C98.4491 59.2436 98.4834 59.1714 98.5384 59.1198C98.5934 59.0683 98.6622 59.0305 98.7172 58.9961C98.7688 58.9389 98.8291 58.8901 98.8959 58.8517L119.593 46.9442C119.852 46.7855 120.149 46.7016 120.453 46.7016C120.756 46.7016 121.053 46.7855 121.312 46.9442L141.992 58.8517C142.064 58.8861 142.116 58.9411 142.188 58.9961C142.243 59.0305 142.294 59.0683 142.349 59.1198C142.404 59.1714 142.456 59.2436 142.511 59.3158C142.545 59.3708 142.6 59.4052 142.618 59.4773C142.673 59.5667 142.69 59.6561 142.724 59.7455C142.758 59.7798 142.779 59.8348 142.796 59.8898L142.789 59.8864ZM139.386 82.9452V63.3239L132.154 67.4764L122.164 73.2411V92.8623L139.386 82.9452ZM118.727 118.465V98.823L108.878 104.426L80.8044 120.469V140.29L118.727 118.465ZM39.4306 51.6123V118.465L77.3497 140.29V120.469L57.5291 109.242C57.4569 109.208 57.4053 109.153 57.3503 109.098C57.2953 109.063 57.2266 109.025 57.1888 108.974H57.1716C57.1166 108.919 57.0822 108.85 57.0272 108.795C56.9928 108.74 56.9378 108.689 56.9034 108.616C56.8634 108.549 56.8333 108.476 56.8141 108.4C56.7797 108.328 56.7419 108.276 56.7247 108.204C56.7075 108.132 56.6903 108.042 56.6903 107.953C56.6731 107.881 56.6559 107.829 56.6559 107.757V61.5295L46.6666 55.7648L39.4306 51.6123ZM58.3919 38.7045L41.17 48.6217L58.3919 58.5389L75.6138 48.6217L58.3919 38.7045ZM67.3603 100.617L77.3497 94.8527V51.6158L70.1172 55.7683L60.1106 61.533V104.77L67.3603 100.617ZM120.446 50.4127L103.203 60.3298L120.446 70.247L137.668 60.3298L120.446 50.4127ZM118.727 73.2411L101.484 63.3239V82.9452L111.474 88.7098L118.723 92.8623L118.727 73.2411ZM79.0719 117.482L116.974 95.853L99.7691 85.9358L61.8844 107.743L79.0719 117.482Z" fill="#00B2D9"/>
</g>
<defs>
<clipPath id="clip0">
<rect width="110" height="110" fill="white" transform="translate(34 35)"/>
</clipPath>
</defs>
</svg>
