<svg width="179" height="179" viewBox="0 0 179 179" fill="none" xmlns="http://www.w3.org/2000/svg">
<circle cx="89.5" cy="89.5" r="89.5" fill="#F1FCFF"/>
<path fill-rule="evenodd" clip-rule="evenodd" d="M45.0791 136.35C45.0791 135.581 45.3657 134.843 45.8759 134.298C46.3861 133.754 47.078 133.448 47.7995 133.448H129.409C130.131 133.448 130.823 133.754 131.333 134.298C131.843 134.843 132.129 135.581 132.129 136.35C132.129 137.12 131.843 137.858 131.333 138.402C130.823 138.946 130.131 139.252 129.409 139.252H47.7995C47.078 139.252 46.3861 138.946 45.8759 138.402C45.3657 137.858 45.0791 137.12 45.0791 136.35ZM62.054 53.217C62.3094 52.8985 62.6264 52.6428 62.9833 52.4675C63.3402 52.2922 63.7285 52.2014 64.1214 52.2014H113.087C113.48 52.2014 113.868 52.2922 114.225 52.4675C114.582 52.6428 114.899 52.8985 115.155 53.217L130.165 71.898C131.433 73.4756 132.129 75.4846 132.129 77.5621V78.3166H126.689V77.5621C126.689 76.8705 126.457 76.2016 126.036 75.676L111.836 58.0048H65.3727L51.1727 75.676C50.7513 76.2016 50.5197 76.8705 50.5198 77.5621V78.3166H45.0791V77.5621C45.0792 75.4846 45.7758 73.4756 47.0432 71.898L62.0594 53.2112L62.054 53.217Z" fill="#00B2D9"/>
<path d="M58.0007 86.2962C62.1356 86.2962 65.4816 82.7213 65.4816 78.3166H70.9222C70.9222 80.4329 71.7104 82.4625 73.1133 83.959C74.5162 85.4555 76.419 86.2962 78.4031 86.2962C80.3872 86.2962 82.2899 85.4555 83.6929 83.959C85.0958 82.4625 85.884 80.4329 85.884 78.3166H91.3246C91.3246 80.4329 92.1128 82.4625 93.5157 83.959C94.9187 85.4555 96.8215 86.2962 98.8055 86.2962C100.79 86.2962 102.692 85.4555 104.095 83.959C105.498 82.4625 106.286 80.4329 106.286 78.3166H111.727C111.727 80.4329 112.515 82.4625 113.918 83.959C115.321 85.4555 117.224 86.2962 119.208 86.2962C121.192 86.2962 123.095 85.4555 124.498 83.959C125.901 82.4625 126.689 80.4329 126.689 78.3166H132.129C132.13 81.1891 131.289 83.9899 129.724 86.3276C128.159 88.6654 125.948 90.4231 123.401 91.3552C120.854 92.2873 118.097 92.3473 115.516 91.5266C112.936 90.7059 110.66 89.0456 109.007 86.7779C107.8 88.4363 106.253 89.7781 104.485 90.7005C102.716 91.6229 100.774 92.1015 98.8055 92.0995C96.8371 92.1019 94.8944 91.6235 93.1261 90.7011C91.3579 89.7786 89.8111 88.4366 88.6043 86.7779C87.3975 88.4366 85.8507 89.7786 84.0825 90.7011C82.3142 91.6235 80.3715 92.1019 78.4031 92.0995C76.4347 92.1019 74.4919 91.6235 72.7237 90.7011C70.9554 89.7786 69.4087 88.4366 68.2019 86.7779C66.549 89.0456 64.2731 90.7059 61.6924 91.5266C59.1116 92.3473 56.355 92.2873 53.8077 91.3552C51.2604 90.4231 49.0498 88.6654 47.4849 86.3276C45.9199 83.9899 45.0788 81.1891 45.0791 78.3166H50.5198C50.5198 82.7271 53.8712 86.2962 58.0007 86.2962Z" fill="#00B2D9"/>
<path d="M70.9222 78.3165C70.9222 79.0861 70.6356 79.8242 70.1254 80.3683C69.6153 80.9125 68.9234 81.2182 68.2019 81.2182C67.4804 81.2182 66.7885 80.9125 66.2783 80.3683C65.7682 79.8242 65.4816 79.0861 65.4816 78.3165C65.4816 77.547 65.7682 76.8089 66.2783 76.2648C66.7885 75.7206 67.4804 75.4149 68.2019 75.4149C68.9234 75.4149 69.6153 75.7206 70.1254 76.2648C70.6356 76.8089 70.9222 77.547 70.9222 78.3165V78.3165ZM91.3246 78.3165C91.3246 79.0861 91.038 79.8242 90.5279 80.3683C90.0177 80.9125 89.3258 81.2182 88.6043 81.2182C87.8828 81.2182 87.1909 80.9125 86.6808 80.3683C86.1706 79.8242 85.884 79.0861 85.884 78.3165C85.884 77.547 86.1706 76.8089 86.6808 76.2648C87.1909 75.7206 87.8828 75.4149 88.6043 75.4149C89.3258 75.4149 90.0177 75.7206 90.5279 76.2648C91.038 76.8089 91.3246 77.547 91.3246 78.3165V78.3165ZM111.727 78.3165C111.727 79.0861 111.44 79.8242 110.93 80.3683C110.42 80.9125 109.728 81.2182 109.007 81.2182C108.285 81.2182 107.593 80.9125 107.083 80.3683C106.573 79.8242 106.286 79.0861 106.286 78.3165C106.286 77.547 106.573 76.8089 107.083 76.2648C107.593 75.7206 108.285 75.4149 109.007 75.4149C109.728 75.4149 110.42 75.7206 110.93 76.2648C111.44 76.8089 111.727 77.547 111.727 78.3165V78.3165Z" fill="#00B2D9"/>
<path fill-rule="evenodd" clip-rule="evenodd" d="M55.9604 91.9312V87.0216H50.5198V89.5577C52.103 90.759 53.9583 91.5888 55.9604 91.9312ZM50.5198 96.2083C52.2118 97.0208 54.0399 97.5547 55.9604 97.781V133.448H50.5198V96.2083ZM121.248 97.781C123.127 97.5624 124.962 97.0338 126.689 96.2141V133.448H121.248V97.781V97.781ZM126.689 89.5577C125.106 90.759 123.25 91.5888 121.248 91.9312V87.0216H126.689V89.5577V89.5577ZM61.4011 101.53C61.4011 100.76 61.6877 100.022 62.1978 99.4782C62.708 98.934 63.3999 98.6283 64.1214 98.6283H85.884C86.6055 98.6283 87.2974 98.934 87.8075 99.4782C88.3177 100.022 88.6043 100.76 88.6043 101.53V133.448H83.1637V104.432H66.8417V133.448H61.4011V101.53ZM94.045 101.53C94.045 100.76 94.3316 100.022 94.8417 99.4782C95.3519 98.934 96.0438 98.6283 96.7653 98.6283H113.087C113.809 98.6283 114.501 98.934 115.011 99.4782C115.521 100.022 115.808 100.76 115.808 101.53V124.743C115.808 125.513 115.521 126.251 115.011 126.795C114.501 127.339 113.809 127.645 113.087 127.645H96.7653C96.0438 127.645 95.3519 127.339 94.8417 126.795C94.3316 126.251 94.045 125.513 94.045 124.743V101.53ZM99.4856 104.432V121.842H110.367V104.432H99.4856Z" fill="#00B2D9"/>
</svg>
