<svg width="179" height="179" viewBox="0 0 179 179" fill="none" xmlns="http://www.w3.org/2000/svg">
<circle cx="89.5" cy="89.5" r="89.5" fill="#F1FCFF"/>
<path fill-rule="evenodd" clip-rule="evenodd" d="M89.0688 93.2484L87.2503 98.8859H84.5416L89.0688 84.7681V62.3109H114.314L109.512 115.214L89.0688 120.721V93.2484ZM89 145C58.6228 145 34 120.377 34 90C34 59.6228 58.6228 35 89 35C119.377 35 144 59.6228 144 90C144 120.377 119.377 145 89 145ZM63.6862 119.112L88.9312 126.094L114.314 119.112L119.938 57.3438H58.0625L63.6862 119.112ZM81.4341 95.7613L69.3134 90.8387V88.8038L81.4341 83.8778V86.4284L72.9469 89.8316L81.4375 93.2141L81.4341 95.7613ZM108.704 90.8387V88.8038L96.5797 83.8778V86.4284L105.07 89.8212L96.5797 93.2141V95.7613L108.704 90.8387ZM89.0688 93.245L92.85 81.5128H90.1137L89.0688 84.7681V93.245Z" fill="#00B2D9"/>
</svg>
